<svg width="1440" height="447" viewBox="0 0 1440 447" fill="none" xmlns="http://www.w3.org/2000/svg">
<path d="M461.485 50.3668C274.277 1.44151 46.3249 300.57 -36.5 455.5L1459 454V416.5C1366.84 296.225 1249.79 163.676 1202.78 129.361C1088.3 27.0253 957.746 141.082 906.777 210.903C849.333 291.629 782.281 257.789 755.935 230.779C629.064 109.281 506.772 59.88 461.485 50.3668Z" fill="#FFF2F6"/>
<path d="M483.038 6.91782C276.602 -47.0315 42.3312 281.16 -49 452H1537L1558.5 390.5C1456.88 257.875 1352.3 131.863 1300.46 94.0235C1174.23 -18.8206 1030.27 106.949 974.062 183.939C910.719 272.955 836.78 235.641 807.729 205.856C667.827 71.8817 532.976 17.4079 483.038 6.91782Z" stroke="#FEDDE8"/>
</svg>
